# xmcd
#
# Track frame offsets: 
#        150
#        13568
#        28079
#        40901
#        53411
#        66663
#        80024
#        92714
#        106574
#        118463
#        131919
#        145934
#        159332
#        175926
#        188369
#        203332
#        213946
#        226002
#        238699
#        249855
#        259788
#        270767
#        282818
#        296783
#        310530
#        325513
#
# Disc length: 4522 seconds
#
# Revision: 0
# Processed by: cddbd v1.5.2PL0 Copyright (c) Steve Scherf et al.
# Submitted via: ExactAudioCopy v0.99pb4
#
DISCID=5a11a81a
DTITLE=Josh White - Blood Red River - CD 1
DYEAR=2006
DGENRE=Blues
TTITLE0=Wing Wang Harmonica Blues
TTITLE1=Black And Evil Blues
TTITLE2=Double Crossing Woman
TTITLE3=Blood Red River
TTITLE4=This Heart Of Mine
TTITLE5=Good Woman Blues
TTITLE6=School Boy Blues
TTITLE7=Milk Cow Blues
TTITLE8=Barbeque Bess
TTITLE9=Paul And Silas Bound In Jail
TTITLE10=Oh Lordy Mama No. 2
TTITLE11=Silicosis Is Killin' Me
TTITLE12=Careless Love
TTITLE13=Jerry
TTITLE14=Trouble
TTITLE15=Billy Boy
TTITLE16=Liza Jane
TTITLE17=Baby Baby
TTITLE18=Evil Hearted Man
TTITLE19=Hold On
TTITLE20=Pretty Flowers In My Backyard
TTITLE21=No 12 Train
TTITLE22=Strange Fruit
TTITLE23=Outskirts Of Town
TTITLE24=The House Of The Risin' Sun
TTITLE25=Jelly, Jelly
EXTD=
EXTT0=
EXTT1=
EXTT2=
EXTT3=
EXTT4=
EXTT5=
EXTT6=
EXTT7=
EXTT8=
EXTT9=
EXTT10=
EXTT11=
EXTT12=
EXTT13=
EXTT14=
EXTT15=
EXTT16=
EXTT17=
EXTT18=
EXTT19=
EXTT20=
EXTT21=
EXTT22=
EXTT23=
EXTT24=
EXTT25=
PLAYORDER=
